<svg xmlns="http://www.w3.org/2000/svg" viewBox="0 0 64 64"><rect x="3.68" y="3.68" width="56.64" height="56.64" rx="14.16" fill="#0f6450"/><rect x="13.39" y="13.68" width="30.28" height="35.76" rx="2.8" fill="#fdfdfd"/><g fill="#0f6450"><rect x="16.58" y="18.69" width="21.25" height="2.96" rx="1.48"/><rect x="16.58" y="24.62" width="10.03" height="2.96" rx="1.48"/><rect x="16.58" y="30.55" width="11.37" height="2.96" rx="1.48"/><rect x="18.59" y="39.38" width="20.14" height="2.89" rx="1.45"/></g><path d="M28.9 23.4 46.7 27.5q2.3.5 2.9 2.9l2.7 9.1q.7 2.4-1.8 1.8l-19.1-4.4q-2.1-.5-2.5-2.6L26.9 25q-.5-2.1 2-1.6Z" fill="#0f6450" stroke="#fdfdfd" stroke-width=".7" stroke-linejoin="round"/><g fill="none" stroke="#fdfdfd" stroke-width="1.45" stroke-linecap="round"><path d="m49.4 18.6-2.1 4.6"/><path d="m53.6 23.2-3.4 2.1"/></g></svg>